Coordinates
version=1
nRows=19
nColumns=27
inDegrees=yes

Units are S.I. units (second, meters, Newtons, ...)
If the header above contains a line with 'inDegrees', this indicates whether rotational values are in degrees (yes) or radians (no).

endheader
time	pelvis_rotation	pelvis_tilt	pelvis_list	pelvis_tx	pelvis_ty	pelvis_tz	hip_flexion_r	hip_adduction_r	hip_rotation_r	knee_angle_r	knee_rotation_r	knee_adduction_r	knee_angle_r_beta	ankle_angle_r	subtalar_angle_r	mtp_angle_r	hip_flexion_l	hip_adduction_l	hip_rotation_l	knee_angle_l	knee_rotation_l	knee_adduction_l	knee_angle_l_beta	ankle_angle_l	subtalar_angle_l	mtp_angle_l
      3.27500000	     10.94904661	    -34.58339806	      7.77285927	     -0.04325241	      0.55161034	     -1.18173656	    119.40391490	    -48.17189457	     16.88856524	     95.23190254	      0.00000000	      9.84069940	      1.66211025	     13.66338938	      0.00000000	      0.00000000	    110.31262542	    -22.71535623	      9.56696199	     92.43990658	      0.00000000	     -9.92963791	      1.61338073	     15.75095316	      0.00000000	      0.00000000
      3.28000000	     10.82061475	    -34.65915739	      7.34019958	     -0.04321030	      0.55012603	     -1.18134450	    119.20037033	    -48.21367476	     16.45716330	     95.44135092	      0.00000000	      9.84107463	      1.66576582	     13.88607657	      0.00000000	      0.00000000	    110.82468129	    -22.71148423	     10.17099960	     92.71480926	      0.00000000	     -9.93017035	      1.61817869	     15.76657082	      0.00000000	      0.00000000
      3.28500000	     10.93024020	    -34.57931363	      7.73009054	     -0.04311000	      0.54848474	     -1.18177468	    119.96456705	    -48.16522009	     17.33621681	     95.69376668	      0.00000000	      9.84209433	      1.67017130	     13.78438344	      0.00000000	      0.00000000	    110.78415188	    -22.72077473	      9.88123022	     92.96550972	      0.00000000	     -9.93026350	      1.62255424	     15.87108605	      0.00000000	      0.00000000
      3.29000000	     10.81168147	    -34.64044274	      7.31610401	     -0.04306315	      0.54698992	     -1.18140024	    119.76758247	    -48.21282219	     16.93056022	     95.90576694	      0.00000000	      9.84235738	      1.67387140	     14.02331752	      0.00000000	      0.00000000	    111.27315790	    -22.70526945	     10.46813689	     93.23790988	      0.00000000	     -9.93079460	      1.62730852	     15.88875384	      0.00000000	      0.00000000
      3.29500000	     10.90452642	    -34.56012989	      7.70590057	     -0.04297288	      0.54532539	     -1.18184105	    120.53704586	    -48.13455199	     17.82207757	     96.16227106	      0.00000000	      9.84331001	      1.67834825	     13.89442526	      0.00000000	      0.00000000	    111.22742581	    -22.72528677	     10.18132156	     93.49117976	      0.00000000	     -9.93085701	      1.63172891	     16.00665508	      0.00000000	      0.00000000
      3.30000000	     10.93243842	    -34.50739258	      7.65139398	     -0.04282047	      0.54377035	     -1.18186843	    120.72588128	    -48.20332743	     17.99468586	     96.39086391	      0.00000000	      9.84378809	      1.68233794	     13.90517462	      0.00000000	      0.00000000	    111.43410349	    -22.65812129	     10.38756557	     93.75506374	      0.00000000	     -9.93120672	      1.63633455	     16.05066591	      0.00000000	      0.00000000
      3.30500000	     10.79136986	    -34.55721073	      7.28009881	     -0.04275967	      0.54223595	     -1.18154010	    120.58212093	    -48.21207553	     17.66304945	     96.60170012	      0.00000000	      9.84413719	      1.68601773	     14.18215083	      0.00000000	      0.00000000	    111.88340308	    -22.67622380	     10.92227978	     94.03560904	      0.00000000	     -9.93168332	      1.64123099	     16.10641806	      0.00000000	      0.00000000
      3.31000000	     10.89746386	    -34.45736133	      7.60161153	     -0.04260318	      0.54055960	     -1.18195954	    121.24995332	    -48.19587614	     18.45086640	     96.85379152	      0.00000000	      9.84496039	      1.69041756	     14.07695042	      0.00000000	      0.00000000	    111.85730883	    -22.64675132	     10.72242267	     94.29331996	      0.00000000	     -9.93173499	      1.64572890	     16.19333563	      0.00000000	      0.00000000
      3.31500000	     10.86083982	    -34.42783453	      7.69012532	     -0.04253497	      0.53892897	     -1.18208368	    121.63864988	    -48.09889518	     18.84949231	     97.09748992	      0.00000000	      9.84582247	      1.69467089	     14.16677494	      0.00000000	      0.00000000	    112.00027151	    -22.70395400	     10.75595446	     94.55569993	      0.00000000	     -9.93200883	      1.65030829	     16.27768815	      0.00000000	      0.00000000
      3.32000000	     10.89748131	    -34.37617543	      7.63988321	     -0.04235179	      0.53728929	     -1.18214439	    121.86340250	    -48.17897520	     19.05154529	     97.33409310	      0.00000000	      9.84636944	      1.69880040	     14.18358272	      0.00000000	      0.00000000	    112.21386206	    -22.61633002	     10.97183888	     94.83374432	      0.00000000	     -9.93222903	      1.65516108	     16.34621868	      0.00000000	      0.00000000
      3.32500000	     10.86688521	    -34.34189683	      7.64742114	     -0.04222298	      0.53564450	     -1.18221914	    122.15741254	    -48.13585547	     19.34141429	     97.58367904	      0.00000000	      9.84709358	      1.70315650	     14.30145704	      0.00000000	      0.00000000	    112.40010385	    -22.62420246	     11.11115749	     95.10539440	      0.00000000	     -9.93254985	      1.65990227	     16.39594353	      0.00000000	      0.00000000
      3.33000000	     10.85954742	    -34.29398374	      7.64212386	     -0.04206557	      0.53399372	     -1.18232028	    122.43645519	    -48.13964817	     19.60802770	     97.81101305	      0.00000000	      9.84777958	      1.70712422	     14.31892903	      0.00000000	      0.00000000	    112.58680201	    -22.61873566	     11.25202736	     95.38200031	      0.00000000	     -9.93285189	      1.66472995	     16.47491669	      0.00000000	      0.00000000
      3.33500000	     10.84401240	    -34.24027230	      7.63803054	     -0.04191257	      0.53235849	     -1.18240376	    122.70324830	    -48.12921167	     19.88180750	     98.05170479	      0.00000000	      9.84844315	      1.71132509	     14.35766699	      0.00000000	      0.00000000	    112.75806387	    -22.60917839	     11.39506343	     95.64839075	      0.00000000	     -9.93315817	      1.66937934	     16.52870812	      0.00000000	      0.00000000
      3.34000000	     10.83222973	    -34.20789346	      7.51831333	     -0.04170371	      0.53070543	     -1.18240094	    122.84530760	    -48.19193256	     19.96424705	     98.27916508	      0.00000000	      9.84902405	      1.71529502	     14.44759904	      0.00000000	      0.00000000	    113.02282340	    -22.55217301	     11.68079828	     95.93747109	      0.00000000	     -9.93344052	      1.67442475	     16.61233168	      0.00000000	      0.00000000
      3.34500000	     10.65796436	    -34.24840507	      7.44224418	     -0.04168088	      0.52906858	     -1.18233464	    123.07559040	    -47.98780728	     20.11940725	     98.50637872	      0.00000000	      9.84937203	      1.71926064	     14.51412133	      0.00000000	      0.00000000	    113.30936701	    -22.70268495	     11.88106220	     96.21260792	      0.00000000	     -9.93403768	      1.67922679	     16.66111243	      0.00000000	      0.00000000
      3.35000000	     10.69617355	    -34.18361195	      7.47044990	     -0.04145573	      0.52738595	     -1.18250028	    123.39159425	    -48.03734323	     20.44210847	     98.73852164	      0.00000000	      9.85008259	      1.72331230	     14.51917580	      0.00000000	      0.00000000	    113.46980438	    -22.65236708	     11.99881226	     96.49075796	      0.00000000	     -9.93427034	      1.68408142	     16.72884924	      0.00000000	      0.00000000
      3.35500000	     10.76833872	    -34.13524804	      7.48631520	     -0.04120304	      0.52571329	     -1.18264467	    123.69720496	    -48.12306290	     20.75306114	     98.98516619	      0.00000000	      9.85118525	      1.72761706	     14.62245873	      0.00000000	      0.00000000	    113.65581640	    -22.55759190	     12.13953004	     96.76467397	      0.00000000	     -9.93448299	      1.68886216	     16.82157164	      0.00000000	      0.00000000
      3.36000000	     10.74785374	    -34.12129620	      7.45747582	     -0.04104673	      0.52404430	     -1.18269988	    123.97832800	    -48.10314683	     20.99256979	     99.22108129	      0.00000000	      9.85190061	      1.73173456	     14.67093682	      0.00000000	      0.00000000	    113.89705458	    -22.55770966	     12.31477630	     97.04159492	      0.00000000	     -9.93487654	      1.69369534	     16.85235522	      0.00000000	      0.00000000
      3.36500000	     10.71864836	    -34.09983939	      7.38111281	     -0.04084709	      0.52240519	     -1.18273915	    124.18389302	    -48.10360739	     21.16903369	     99.44154708	      0.00000000	      9.85229393	      1.73558241	     14.65918220	      0.00000000	      0.00000000	    114.13894806	    -22.54681708	     12.53273914	     97.31713399	      0.00000000	     -9.93534421	      1.69850441	     16.94075729	      0.00000000	      0.00000000
